<svg width="40" height="29" viewBox="0 0 40 29" fill="none" xmlns="http://www.w3.org/2000/svg">
<path d="M4.01686 0.743164C1.8038 0.743164 0 2.44837 0 4.54533V8.20227V12.9233V24.6295C0 26.7264 1.8038 28.4356 4.01686 28.4356H35.9818C38.1948 28.4356 40 26.7264 40 24.6295V12.9233V8.20227V4.54533C40 2.44837 38.1948 0.743164 35.9818 0.743164H4.01686ZM4.01686 2.09505H35.9818C37.4291 2.09505 38.5733 3.17393 38.5733 4.54533V7.52369H1.42673V4.54533C1.42673 3.17393 2.56953 2.09505 4.01686 2.09505ZM1.42673 8.87689H38.5733V12.2447H1.42673V8.87689ZM1.42673 13.5966H38.5733V24.6295C38.5733 26.0009 37.4291 27.0837 35.9818 27.0837H4.01686C2.56953 27.0837 1.42673 26.0009 1.42673 24.6295V13.5966ZM5.79191 18.0575C5.6969 18.0555 5.60242 18.0715 5.51403 18.1046C5.42563 18.1377 5.3451 18.1872 5.27715 18.2501C5.20921 18.3131 5.15523 18.3883 5.11837 18.4713C5.08152 18.5543 5.06253 18.6434 5.06253 18.7335C5.06253 18.8235 5.08152 18.9127 5.11837 18.9957C5.15523 19.0787 5.20921 19.1539 5.27715 19.2168C5.3451 19.2798 5.42563 19.3293 5.51403 19.3623C5.60242 19.3954 5.6969 19.4114 5.79191 19.4094H14.7703C14.9567 19.4055 15.1342 19.3326 15.2646 19.2062C15.395 19.0799 15.468 18.9102 15.468 18.7335C15.468 18.5568 15.395 18.3871 15.2646 18.2607C15.1342 18.1344 14.9567 18.0615 14.7703 18.0575H5.79191ZM5.79191 21.7105C5.6969 21.7085 5.60243 21.7245 5.51403 21.7576C5.42564 21.7907 5.34511 21.8402 5.27717 21.9031C5.20923 21.9661 5.15525 22.0413 5.1184 22.1243C5.08154 22.2073 5.06256 22.2964 5.06256 22.3865C5.06256 22.4765 5.08154 22.5657 5.1184 22.6487C5.15525 22.7317 5.20923 22.8069 5.27717 22.8698C5.34511 22.9328 5.42564 22.9822 5.51403 23.0153C5.60243 23.0484 5.6969 23.0644 5.79191 23.0624H9.62625C9.72126 23.0644 9.81573 23.0484 9.90413 23.0153C9.99252 22.9822 10.073 22.9328 10.141 22.8698C10.2089 22.8069 10.2629 22.7317 10.2998 22.6487C10.3366 22.5657 10.3556 22.4765 10.3556 22.3865C10.3556 22.2964 10.3366 22.2073 10.2998 22.1243C10.2629 22.0413 10.2089 21.9661 10.141 21.9031C10.073 21.8402 9.99252 21.7907 9.90413 21.7576C9.81573 21.7245 9.72126 21.7085 9.62625 21.7105H5.79191Z" fill="#0558A5"/>
</svg>
