<svg width="50" height="44" viewBox="0 0 50 44" fill="none" xmlns="http://www.w3.org/2000/svg">
<path d="M50 2.74181C50 2.01904 49.697 1.32587 49.1576 0.814798C48.6182 0.303721 47.8867 0.0166016 47.1239 0.0166016H2.87611C2.11332 0.0166016 1.38177 0.303721 0.842392 0.814798C0.303017 1.32587 0 2.01904 0 2.74181V40.5803C0 41.3031 0.303017 41.9963 0.842392 42.5073C1.38177 43.0184 2.11332 43.3055 2.87611 43.3055H47.1239C47.8867 43.3055 48.6182 43.0184 49.1576 42.5073C49.697 41.9963 50 41.3031 50 40.5803V2.74181ZM47.146 41.9429H2.85398C2.65438 41.9474 2.45587 41.9138 2.27021 41.8442C2.08456 41.7746 1.91554 41.6704 1.77318 41.5377C1.63082 41.4051 1.51801 41.2467 1.44144 41.072C1.36487 40.8973 1.32611 40.7098 1.32743 40.5206V10.7078H48.6726V40.5206C48.6739 40.7098 48.6351 40.8973 48.5586 41.072C48.482 41.2467 48.3692 41.4051 48.2268 41.5377C48.0845 41.6704 47.9154 41.7746 47.7298 41.8442C47.5441 41.9138 47.3456 41.9474 47.146 41.9429ZM2.85398 1.27439H47.146C47.3456 1.26995 47.5441 1.30353 47.7298 1.37314C47.9154 1.44274 48.0845 1.54695 48.2268 1.6796C48.3692 1.81224 48.482 1.97062 48.5586 2.14534C48.6351 2.32006 48.6739 2.50756 48.6726 2.69674V9.45003H1.32743V2.69674C1.32611 2.50756 1.36487 2.32006 1.44144 2.14534C1.51801 1.97062 1.63082 1.81224 1.77318 1.6796C1.91554 1.54695 2.08456 1.44274 2.27021 1.37314C2.45587 1.30353 2.65438 1.26995 2.85398 1.27439Z" fill="#0558A5"/>
</svg>
