<svg width="20" height="19" viewBox="0 0 20 19" fill="none" xmlns="http://www.w3.org/2000/svg">
<path d="M2.24551 17.257C2.5698 17.2585 2.89243 17.26 3.214 17.2616C4.41972 17.2675 5.61068 17.2734 6.81949 17.2712L6.82172 17.2712L6.83772 17.2712C8.33763 17.2712 9.81587 17.2534 11.3107 17.2117C12.2133 17.186 13.2252 16.885 14.1921 16.4495L14.1997 16.4461L14.1997 16.4461C17.041 15.1891 18.5405 12.7523 18.6709 10.305L18.6738 10.251L18.6814 10.1975C18.7119 9.98016 18.7323 9.76165 18.7425 9.54185L2.24551 17.257ZM2.24551 17.257C2.56488 16.7392 2.87624 16.2244 3.17403 15.7056L3.18492 15.6867L3.19514 15.6673C3.33926 15.3945 3.43011 15.0968 3.46285 14.7901L3.50838 14.3634L3.28234 13.9988C2.49794 12.7334 2.06614 11.2814 2.03165 9.793C1.99717 8.30463 2.36126 6.83411 3.08621 5.53378C3.81116 4.23345 4.8706 3.1506 6.15478 2.3974C7.43896 1.6442 8.90117 1.24806 10.3899 1.25001H10.3916C15.0471 1.25001 18.9428 5.20967 18.7425 9.54168L2.24551 17.257Z" stroke="white" stroke-width="2.5"/>
</svg>
