<svg width="45" height="37" viewBox="0 0 45 37" fill="none" xmlns="http://www.w3.org/2000/svg">
<path fill-rule="evenodd" clip-rule="evenodd" d="M12.6399 0C10.3432 0 8.42112 1.80331 8.42112 4.02451V6.79235H4.2187C1.92206 6.79235 0 8.60454 0 10.8487V24.5129C0 26.7571 1.92206 28.5693 4.2187 28.5693H4.97093V36.141C4.97151 36.2442 5.00429 36.3447 5.06493 36.4294C5.12557 36.514 5.21121 36.5787 5.3105 36.615C5.40978 36.6512 5.51804 36.6572 5.62093 36.6322C5.72381 36.6072 5.81647 36.5524 5.88663 36.4751L12.9506 28.5693H32.3765C34.6731 28.5693 36.5788 26.7524 36.5788 24.5129V21.7451H40.8139C43.1106 21.7451 45 19.9211 45 17.7047V4.02451C45 1.80808 43.1106 0 40.8139 0H12.6399ZM12.6399 1.01806H40.8139C42.5461 1.01806 43.9535 2.3714 43.9535 4.02451V17.7047C43.9535 19.3578 42.5461 20.727 40.8139 20.727H36.5788V10.8487C36.5788 8.60924 34.6731 6.79235 32.3765 6.79235H9.46763V4.02451C9.46763 2.37617 10.9076 1.01806 12.6399 1.01806ZM4.2187 7.81041H32.3765C34.1086 7.81041 35.5323 9.16484 35.5323 10.8487V24.5129C35.5323 26.1968 34.1086 27.5512 32.3765 27.5512H12.7216C12.6444 27.5492 12.5677 27.5639 12.4971 27.5941C12.4264 27.6244 12.3635 27.6695 12.3128 27.7262L6.01743 34.773V28.0602C6.01742 27.9252 5.96229 27.7958 5.86416 27.7003C5.76603 27.6049 5.63295 27.5512 5.49418 27.5512H4.2187C2.48651 27.5512 1.0465 26.1921 1.0465 24.5129V10.8487C1.0465 9.16955 2.48651 7.81041 4.2187 7.81041H4.2187Z" fill="#0558A5"/>
</svg>
