<svg width="34" height="24" viewBox="0 0 34 24" fill="none" xmlns="http://www.w3.org/2000/svg">
<path d="M33.4512 23.2438V0.919547C33.4512 0.516625 33.1154 0.189941 32.7012 0.189941H1.29785C0.883667 0.189941 0.547852 0.516625 0.547852 0.919547V23.2438C0.547852 23.6467 0.883667 23.9734 1.29785 23.9734H32.7012C33.1154 23.9734 33.4512 23.6467 33.4512 23.2438ZM2.04785 2.4794L12.2598 11.8934L2.04785 21.6523V2.4794ZM18.7991 12.6103C18.2941 13.1016 17.6646 13.3756 17.0262 13.3816C16.3645 13.3873 15.739 13.1184 15.1945 12.5886L3.32845 1.64915H30.7637L18.7991 12.6103ZM13.3493 12.8977L14.1482 13.6342C14.9487 14.4133 15.962 14.8408 17.0054 14.8408C17.0171 14.8408 17.0288 14.8408 17.0409 14.8408C18.074 14.8312 19.0752 14.4055 19.8435 13.6574L20.7123 12.8615L30.8131 22.5142H3.28633L13.3493 12.8977ZM21.8051 11.8604L31.9512 2.56566V21.5564L21.8051 11.8604Z" fill="#0558A5"/>
</svg>
