<svg width="50" height="44" viewBox="0 0 50 44" fill="none" xmlns="http://www.w3.org/2000/svg">
<path d="M10.3429 13.2738C6.74286 13.2738 3.82857 10.5124 3.82857 7.10124C3.82857 3.6901 6.74286 0.928711 10.3429 0.928711C13.9429 0.928711 16.8571 3.6901 16.8571 7.10124C16.8571 10.5124 13.9429 13.2738 10.3429 13.2738ZM10.3429 2.6072C7.71429 2.6072 5.54286 4.66471 5.54286 7.15538C5.54286 9.64605 7.71429 11.7036 10.3429 11.7036C12.9714 11.7036 15.1429 9.64605 15.1429 7.15538C15.1429 4.66471 12.9714 2.6072 10.3429 2.6072ZM15.5429 30.4919C15.5429 30.0587 15.1429 29.6797 14.6857 29.6797C14.2286 29.6797 13.8286 30.0587 13.8286 30.4919V42.133H6.8V29.6797H1.65714V21.8828C1.65714 18.8507 4.28571 16.36 7.48571 16.36H13.1429C16.3429 16.36 18.9714 18.8507 18.9714 21.8828C18.9714 22.316 19.3714 22.695 19.8286 22.695C20.2857 22.695 20.6857 22.316 20.6857 21.8828C20.6857 17.9302 17.3143 14.7357 13.1429 14.7357H7.54286C3.37143 14.7357 0 17.9302 0 21.8828V31.304H5.14286V43.7574H15.6V30.4919H15.5429ZM40.8 17.1722C37.6 17.1722 35.0286 14.6815 35.0286 11.7036C35.0286 8.72559 37.6 6.18077 40.8 6.18077C44 6.18077 46.5714 8.67144 46.5714 11.6494C46.5714 14.6274 44 17.1722 40.8 17.1722ZM40.8 7.80512C38.5714 7.80512 36.7429 9.53776 36.7429 11.6494C36.7429 13.7611 38.5714 15.4937 40.8 15.4937C43.0286 15.4937 44.8571 13.7611 44.8571 11.6494C44.9143 9.53776 43.0857 7.80512 40.8 7.80512ZM45.4857 32.8742H50V24.4818C50 20.9624 46.9714 18.0927 43.2571 18.0927H38.3429C35.6571 18.0927 33.2571 19.6087 32.1714 21.937C32 22.3701 32.1714 22.8033 32.6286 23.0199C33.0857 23.1823 33.5429 23.0199 33.7714 22.5867C34.5714 20.8541 36.3429 19.717 38.3429 19.717H43.2571C46 19.717 48.2857 21.8287 48.2857 24.4818V31.2499H43.7714V42.133H37.8286V32.0621C37.8286 31.6289 37.4286 31.2499 36.9714 31.2499C36.5143 31.2499 36.1143 31.6289 36.1143 32.0621V43.7574H45.4857V32.8742ZM26.0571 23.074C23.5429 23.074 21.4857 21.1248 21.4857 18.7424C21.4857 16.36 23.5429 14.4108 26.0571 14.4108C28.5714 14.4108 30.6286 16.36 30.6286 18.7424C30.6286 21.1248 28.5714 23.074 26.0571 23.074ZM26.0571 16.0893C24.5143 16.0893 23.2 17.2805 23.2 18.7966C23.2 20.3126 24.4571 21.5038 26.0571 21.5038C27.6571 21.5038 28.9143 20.3126 28.9143 18.7966C28.9143 17.2805 27.6 16.0893 26.0571 16.0893ZM29.7714 43.7574H22.3429V35.6356H18.9714V29.1382C18.9714 26.3769 21.3143 24.1569 24.2286 24.1569H27.9429C30.8571 24.1569 33.2 26.3769 33.2 29.1382V35.5815H29.8286V43.7574H29.7714ZM24.0571 42.133H28.0571V34.0113H31.4286V29.1924C31.4286 27.3515 29.8286 25.8354 27.8857 25.8354H24.1714C22.2286 25.8354 20.6286 27.3515 20.6286 29.1924V34.0113H24V42.133H24.0571Z" fill="#0558A5"/>
</svg>
