<svg width="40" height="42" viewBox="0 0 40 42" fill="none" xmlns="http://www.w3.org/2000/svg">
<path d="M0.929545 0.792509C0.42533 0.837553 -0.00217628 1.28449 8.33601e-06 1.76434V40.6376C7.44899e-05 41.1465 0.488674 41.6094 1.0257 41.6094H30.7709C31.3079 41.6094 31.7965 41.1465 31.7966 40.6376V32.8478C31.9055 32.7699 32.0276 32.7018 32.1331 32.62L38.2553 38.4054C38.6344 38.7747 39.3376 38.7775 39.7199 38.4112C40.1022 38.045 40.0916 37.3788 39.6976 37.0237L33.5915 31.2383C35.0391 29.5624 35.8994 27.4162 35.8994 25.0884C35.8994 21.9219 34.2806 19.1199 31.7966 17.3441V10.5109C31.7987 10.2522 31.6863 9.99434 31.4921 9.81242L22.2608 1.06584C22.07 0.890911 21.8052 0.79055 21.5396 0.792509C14.6719 0.792509 7.79041 0.792509 0.929545 0.792509ZM2.0514 2.73617H20.0011V10.9967C20.0011 11.5056 20.4897 11.9685 21.0268 11.9686H29.7452V16.19C28.4888 15.6684 27.0988 15.37 25.6424 15.37C22.5391 15.37 19.7525 16.6992 17.8696 18.7714C14.1061 18.7714 10.3273 18.7714 6.57087 18.7714C6.03534 18.7973 5.5724 19.2811 5.5975 19.7886C5.62261 20.2961 6.13129 20.7367 6.66703 20.715H16.4913C15.9313 21.7584 15.5624 22.9002 15.4335 24.1165C12.4823 24.1165 9.51489 24.1165 6.57087 24.1165C6.03131 24.1369 5.56093 24.6231 5.58622 25.1342C5.6115 25.6453 6.12782 26.0876 6.66703 26.0601H15.4335C15.5605 27.277 15.9327 28.4172 16.4913 29.4616C13.1874 29.4616 9.86765 29.4616 6.57087 29.4616C6.03382 29.4854 5.56808 29.9701 5.59326 30.4789C5.61843 30.9878 6.12998 31.4291 6.66703 31.4053H17.8535C19.6298 33.3685 22.2147 34.6668 25.1135 34.8066C18.935 34.8066 12.7425 34.8066 6.57087 34.8066C6.03382 34.8304 5.56808 35.3152 5.59326 35.8241C5.61843 36.3329 6.12998 36.7741 6.66703 36.7503H25.1296C25.6714 36.7576 26.1698 36.2919 26.1698 35.7785C26.1698 35.265 25.6714 34.7994 25.1296 34.8066C25.2988 34.8144 25.4711 34.8066 25.6424 34.8066C27.0988 34.8066 28.4888 34.5234 29.7452 34.0018V39.6658H2.0514V2.73617ZM22.0525 3.6169L28.8157 10.0249H22.0525V3.6169ZM25.6424 17.3137C30.1864 17.3137 33.848 20.783 33.848 25.0883C33.848 29.3936 30.1864 32.8629 25.6424 32.8629C21.0985 32.8629 17.4368 29.3936 17.4368 25.0883C17.4368 20.783 21.0985 17.3137 25.6424 17.3137ZM25.5302 19.7281C25.0262 19.7805 24.6058 20.2348 24.6167 20.715V21.6869C24.609 22.2004 25.1005 22.6726 25.6424 22.6726C26.1843 22.6726 26.6758 22.2004 26.6681 21.6869V20.715C26.6806 20.1638 26.1087 19.6677 25.5302 19.7281ZM25.5302 24.1013C25.0262 24.1538 24.6058 24.608 24.6167 25.0883V29.4616C24.609 29.975 25.1005 30.4472 25.6424 30.4472C26.1843 30.4472 26.6758 29.975 26.6681 29.4616V25.0883C26.6806 24.537 26.1087 24.0409 25.5302 24.1013Z" fill="#0558A5"/>
</svg>
