<svg width="24" height="25" viewBox="0 0 24 25" fill="none" xmlns="http://www.w3.org/2000/svg">
<path d="M22.2257 0H1.77287C0.79393 0 0 0.774992 0 1.73014V22.4223C0 23.377 0.79393 24.152 1.77287 24.152H22.2257C23.2061 24.152 24 23.3765 24 22.4223V1.73014C24 0.774507 23.2056 0 22.2257 0ZM7.27454 20.2183H3.64965V9.31253H7.27454V20.2183ZM5.46234 7.82276H5.43806C4.22215 7.82276 3.43551 6.98513 3.43551 5.9387C3.43551 4.86895 4.24643 4.05463 5.48613 4.05463C6.72631 4.05463 7.48917 4.86895 7.51344 5.9387C7.51344 6.98513 6.72583 7.82276 5.46234 7.82276ZM20.346 20.2183H16.7211V14.3825C16.7211 12.917 16.1967 11.9167 14.8851 11.9167C13.8838 11.9167 13.2875 12.5912 13.0248 13.2429C12.9292 13.4754 12.9059 13.8008 12.9059 14.1271V20.2178H9.28097C9.28097 20.2178 9.32856 10.3342 9.28097 9.31205H12.9059V10.8557C13.3876 10.1128 14.249 9.05469 16.1734 9.05469C18.5581 9.05469 20.3465 10.6139 20.3465 13.9639V20.2183H20.346Z" fill="#7E7E7E"/>
</svg>
