<svg width="26" height="26" viewBox="0 0 26 26" fill="none" xmlns="http://www.w3.org/2000/svg">
<path d="M8 24.4106C8 24.9318 8.45 25.3582 9 25.3582H17C17.55 25.3582 18 24.9318 18 24.4106V17.7779H25C25.55 17.7779 26 17.3515 26 16.8303V9.25001C26 8.72886 25.55 8.30247 25 8.30247H18V1.66971C18 1.14856 17.55 0.722168 17 0.722168H9C8.45 0.722168 8 1.14856 8 1.66971V8.30247H1C0.45 8.30247 0 8.72886 0 9.25001V16.8303C0 17.3515 0.45 17.7779 1 17.7779H8V24.4106ZM2 15.8828V10.1975H9C9.55 10.1975 10 9.77116 10 9.25001V2.61724H16V9.25001C16 9.77116 16.45 10.1975 17 10.1975H24V15.8828H17C16.45 15.8828 16 16.3092 16 16.8303V23.4631H10V16.8303C10 16.3092 9.55 15.8828 9 15.8828H2Z" fill="#0558A5"/>
</svg>
