<svg width="39" height="38" viewBox="0 0 39 38" fill="none" xmlns="http://www.w3.org/2000/svg">
<path d="M36.3992 27.616L36.2323 27.5101C35.6589 27.1288 33.075 25.4907 31.3694 24.4034C30.6436 23.9374 30.0339 23.5631 29.8089 23.4149C29.0099 22.9219 28.0472 22.7452 27.1185 22.9212C26.1899 23.0971 25.3657 23.6124 24.8153 24.361L24.6121 24.6081C23.9734 25.3848 23.3129 26.1968 22.2532 26.2533C20.7435 26.3451 18.6242 25.0247 15.8806 22.3558C13.1371 19.6868 11.7871 17.5968 11.8669 16.1565C11.9323 15.1185 12.7597 14.476 13.5581 13.8547L13.7903 13.6287C14.5549 13.0904 15.0782 12.2873 15.2524 11.3849C15.4266 10.4825 15.2384 9.54948 14.7266 8.77801L13.7685 7.36587C12.629 5.67836 10.9161 3.12944 10.5242 2.55046L10.4153 2.39512C9.82742 1.54784 8.85484 0.135695 6.78629 0.425185C5.36371 0.601703 0 3.31302 0 9.20165C0 14.3207 3.84677 20.993 10.5532 27.5171C17.2597 34.0412 24.104 37.7764 29.3661 37.7764C35.4194 37.7764 38.2137 32.5514 38.4169 31.1464C38.7145 29.1341 37.2629 28.1809 36.3992 27.616ZM36.9798 30.9487C36.8202 32.0501 34.4032 36.3642 29.3661 36.3642C24.4887 36.3642 18 32.7774 11.5694 26.4792C5.13871 20.1811 1.45161 13.9465 1.45161 9.20165C1.46448 7.55187 2.00839 5.94747 3.0069 4.61391C4.00541 3.28034 5.40834 2.28464 7.01855 1.76672H7.33065C8.20887 1.76672 8.68064 2.3457 9.23952 3.17886L9.35565 3.34126C9.74032 3.89199 11.446 6.44797 12.5782 8.13549L13.5435 9.54763C13.8538 10.0294 13.9606 10.6093 13.8416 11.1659C13.7226 11.7226 13.3869 12.2129 12.9048 12.5343L12.6581 12.725C11.7581 13.431 10.4806 14.3772 10.4226 16.0435C10.3065 17.964 11.7145 20.2799 14.85 23.3231C17.9855 26.3663 20.3734 27.7502 22.3331 27.6372C24.046 27.5383 25.0331 26.338 25.7516 25.4554L25.9476 25.2154C26.2783 24.7425 26.785 24.4134 27.3607 24.2974C27.9363 24.1815 28.5358 24.2878 29.0323 24.594L30.5927 25.5896C32.2984 26.6699 34.875 28.3009 35.4339 28.6751L35.6081 28.7881C36.5008 29.3882 37.1395 29.8895 37.0161 30.9487H36.9798Z" fill="#0558A5"/>
</svg>
