<svg width="50" height="39" viewBox="0 0 50 39" fill="none" xmlns="http://www.w3.org/2000/svg">
<path d="M2.81667 38.3331L2.81526 38.3332C2.50791 38.334 2.20397 38.2774 1.92108 38.167C1.63822 38.0567 1.38282 37.8952 1.16885 37.6931C0.954944 37.491 0.786763 37.2524 0.67255 36.9917C0.55837 36.731 0.499999 36.4526 0.5 36.1722V7.54866C0.5 6.9824 0.737154 6.4335 1.16889 6.02442C1.60153 5.61447 2.19381 5.37977 2.81667 5.37977H17.5H18V4.87977V2.31353C18 1.87919 18.1818 1.45683 18.5151 1.14104C18.8493 0.824377 19.308 0.64209 19.7917 0.64209H30.2083C30.6919 0.64209 31.1507 0.824377 31.4849 1.14104C31.8181 1.45683 32 1.8792 32 2.31353V4.87977V5.37977H32.5H47.1917C47.499 5.37977 47.8028 5.43727 48.0853 5.54839C48.3678 5.65949 48.6226 5.82167 48.836 6.02438C49.0492 6.22705 49.2166 6.46611 49.33 6.72713C49.4434 6.98808 49.5009 7.26664 49.5 7.5471V7.54866V36.1721C49.5 36.7363 49.2637 37.2832 48.8335 37.6908C48.4025 38.0993 47.8123 38.3331 47.1917 38.3331L2.81667 38.3331ZM47.1917 37.7539L47.1951 37.7539C47.6202 37.751 48.0321 37.5899 48.3404 37.2977C48.6496 37.0048 48.8301 36.6024 48.8333 36.176V36.1721V18.0821V17.3032L48.1251 17.6275C45.6958 18.7401 39.6746 20.8596 28.3288 20.9617L27.8333 20.9661V21.4617V23.8305C27.8333 23.8983 27.8051 23.9692 27.7453 24.0259C27.6846 24.0834 27.5968 24.1201 27.5 24.1201H22.5C22.4032 24.1201 22.3153 24.0834 22.2546 24.0259C22.1949 23.9692 22.1667 23.8983 22.1667 23.8305V21.4617V20.9665L21.6715 20.9617C10.3256 20.8517 4.30431 18.7322 1.87486 17.6196L1.16667 17.2953V18.0742L1.16665 36.1721L1.16668 36.176C1.16996 36.6045 1.3521 37.0085 1.66384 37.3018C1.97469 37.5942 2.38952 37.7539 2.81667 37.7539L47.1917 37.7539ZM26.6667 23.5409H27.1667V23.0409V17.5136V17.0136H26.6667H23.3333H22.8333V17.5136V23.0409V23.5409H23.3333H26.6667ZM18.6667 2.30663L18.6667 2.30663V2.31353V4.87977V5.37977H19.1667H30.8333H31.3333V4.87977V2.31353H31.3334L31.3333 2.30663C31.3292 2.01114 31.2034 1.73456 30.9918 1.53409C30.7811 1.33443 30.5017 1.22491 30.2145 1.22136V1.22132H30.2083H19.7917V1.22128L19.7855 1.22136C19.4983 1.22491 19.2189 1.33443 19.0082 1.53408C18.7966 1.73456 18.6708 2.01114 18.6667 2.30663ZM47.1951 5.959H47.1917H2.81667C2.38749 5.959 1.97084 6.12029 1.65959 6.41521C1.34743 6.71099 1.16667 7.1181 1.16667 7.54866V16.2897V16.5886L1.42995 16.7301C2.93364 17.5383 8.93978 20.2712 21.6623 20.3824L22.1667 20.3868V19.8824V16.724C22.1667 16.6561 22.1949 16.5852 22.2546 16.5286C22.3153 16.4711 22.4032 16.4344 22.5 16.4344H27.5C27.5968 16.4344 27.6846 16.4711 27.7453 16.5286C27.8051 16.5852 27.8333 16.6561 27.8333 16.724V19.8745V20.3789L28.3377 20.3745C41.0571 20.2634 47.0665 17.5554 48.5757 16.7191L48.8333 16.5764V16.2818V7.54868C48.8333 7.12016 48.6543 6.71475 48.3447 6.41924C48.0359 6.12458 47.6222 5.96194 47.1951 5.959Z" fill="white" stroke="#0558A5"/>
</svg>
