<svg width="60" height="38" viewBox="0 0 60 38" fill="none" xmlns="http://www.w3.org/2000/svg">
<path d="M45.8014 5.97707C42.4397 5.96819 39.1917 7.12916 36.6738 9.23959C34.4115 5.76117 31.0132 3.0772 26.9947 1.59517C22.9763 0.113147 18.5572 -0.0859799 14.4085 1.02802C10.2597 2.14203 6.60792 4.50831 4.00748 7.76762C1.40704 11.0269 0 15.0012 0 19.0871C0 23.173 1.40704 27.1473 4.00748 30.4066C6.60792 33.6659 10.2597 36.0322 14.4085 37.1462C18.5572 38.2602 22.9763 38.061 26.9947 36.579C31.0132 35.097 34.4115 32.413 36.6738 28.9346C39.1917 31.045 42.4397 32.206 45.8014 32.1971C47.6487 32.2419 49.4867 31.9357 51.2072 31.2968C52.9277 30.6578 54.4958 29.699 55.819 28.4768C57.1423 27.2546 58.194 25.7938 58.912 24.1804C59.6301 22.567 60 20.8338 60 19.0828C60 17.3319 59.6301 15.5986 58.912 13.9852C58.194 12.3719 57.1423 10.911 55.819 9.68883C54.4958 8.46663 52.9277 7.5078 51.2072 6.86885C49.4867 6.22991 47.6487 5.92378 45.8014 5.96851V5.97707ZM19.8105 36.1532C16.6569 36.149 13.5598 35.3598 10.8293 33.8647C8.0988 32.3696 5.83072 30.2211 4.2521 27.6343C2.67348 25.0475 1.83973 22.1131 1.83432 19.1249C1.82891 16.1368 2.65202 13.1997 4.22126 10.6078C5.7905 8.01585 8.05079 5.85999 10.7759 4.35604C13.5009 2.8521 16.5951 2.05284 19.7487 2.03829C22.9022 2.02374 26.0045 2.79441 28.7449 4.27314C31.4853 5.75187 33.7676 7.88677 35.3634 10.4641L35.1465 10.721L34.776 11.1577C34.6314 11.3375 34.4959 11.5174 34.3693 11.6972C34.2428 11.877 34.1525 11.9969 34.053 12.151C33.9536 12.3052 33.809 12.5364 33.7006 12.7333C33.5921 12.9303 33.5198 13.0501 33.4295 13.2043C33.3391 13.3584 33.2216 13.6153 33.1313 13.8208C33.0409 14.0263 32.9776 14.1377 32.9144 14.3089C32.8511 14.4802 32.7517 14.7456 32.6704 14.9683C32.589 15.1909 32.5529 15.2937 32.5077 15.4564C32.4625 15.6191 32.3812 15.9273 32.3269 16.1671C32.2727 16.4069 32.2456 16.4754 32.2095 16.6381C32.1733 16.8008 32.1191 17.169 32.092 17.443C32.092 17.58 32.092 17.7084 32.0378 17.8455C32.0378 18.2479 31.9745 18.7018 31.9745 19.07C31.9745 19.4382 31.9745 19.9263 32.0378 20.2945C32.0378 20.4315 32.0378 20.5599 32.092 20.6969C32.092 20.9624 32.1643 21.2364 32.2185 21.5019C32.2727 21.7673 32.2908 21.8101 32.3269 21.9728C32.3631 22.1355 32.4354 22.4524 32.5077 22.6836C32.58 22.9148 32.6161 23.009 32.6704 23.1717C32.7246 23.3344 32.824 23.6169 32.9144 23.831C33.0047 24.0451 33.059 24.1564 33.1313 24.3106C33.2035 24.4647 33.321 24.7301 33.4295 24.9357C33.5379 25.1412 33.6012 25.2525 33.6916 25.4066C33.7819 25.5608 33.9265 25.8005 34.053 25.9889L34.3693 26.4428C34.5049 26.6311 34.6405 26.811 34.7851 26.9908L35.1465 27.4275L35.3634 27.6844C33.7786 30.2611 31.5085 32.3991 28.7795 33.8851C26.0505 35.3711 22.958 36.1532 19.8105 36.1532ZM45.8014 30.4931C42.6104 30.4931 39.55 29.2926 37.2928 27.1554C35.0355 25.0182 33.7662 22.1192 33.7639 19.0957C33.7625 18.3629 33.8351 17.6317 33.9807 16.9121C34.4176 14.7899 35.482 12.8291 37.05 11.2582C38.618 9.68731 40.6249 8.57108 42.8368 8.03961C45.0487 7.50815 47.3744 7.58335 49.5429 8.25644C51.7114 8.92953 53.6334 10.1728 55.0847 11.8413C56.536 13.5098 57.4569 15.5348 57.7401 17.6803C58.0232 19.8257 57.657 22.0033 56.684 23.9591C55.711 25.9148 54.1714 27.5683 52.2446 28.7267C50.3178 29.885 48.0833 30.5006 45.8014 30.5016V30.4931Z" fill="#0558A5"/>
</svg>
