<svg width="25" height="21" viewBox="0 0 25 21" fill="none" xmlns="http://www.w3.org/2000/svg">
<path d="M7.862 20.0109C17.296 20.0109 22.456 12.3115 22.456 5.63452C22.456 5.41583 22.456 5.19812 22.441 4.9814C23.4448 4.26614 24.3114 3.38051 25 2.36599C24.0639 2.77461 23.0708 3.04258 22.054 3.16096C23.1247 2.5295 23.9261 1.53632 24.309 0.366257C23.3022 0.954804 22.2006 1.36958 21.052 1.59269C20.2787 0.782639 19.2559 0.246241 18.1419 0.0665067C17.0279 -0.113228 15.8848 0.0737206 14.8895 0.598423C13.8943 1.12313 13.1023 1.95633 12.6362 2.9691C12.1701 3.98187 12.0558 5.11774 12.311 6.20094C10.2718 6.10024 8.2768 5.5782 6.45564 4.66873C4.63448 3.75925 3.02784 2.48267 1.74 0.921847C1.08409 2.03417 0.8832 3.35094 1.17823 4.60405C1.47326 5.85716 2.24202 6.9524 3.328 7.66676C2.51174 7.64293 1.71328 7.42602 1 7.03433C1 7.05502 1 7.07669 1 7.09836C1.00032 8.26492 1.41026 9.39546 2.16028 10.2982C2.9103 11.201 3.95423 11.8204 5.115 12.0514C4.35987 12.2543 3.56758 12.2839 2.799 12.1381C3.12676 13.1421 3.76486 14.02 4.62407 14.6492C5.48328 15.2783 6.52061 15.6272 7.591 15.647C5.77474 17.0531 3.53106 17.8165 1.221 17.8142C0.812904 17.8134 0.405204 17.7891 0 17.7413C2.34564 19.2241 5.07491 20.0106 7.862 20.007" fill="#7E7E7E"/>
</svg>
