<svg width="45" height="44" viewBox="0 0 45 44" fill="none" xmlns="http://www.w3.org/2000/svg">
<path d="M43.8041 19.7067C44.5977 17.9288 45 16.0413 45 14.0964C45 6.32399 38.4992 0 30.5096 0C28.4326 0 26.4367 0.41748 24.5777 1.23964C24.539 1.25682 24.5053 1.28055 24.4728 1.30543C23.2294 1.18975 21.802 1.19024 20.5655 1.30209C18.6521 0.440129 16.6096 0 14.4904 0C6.50075 0 0 6.32399 0 14.0964C0 16.2645 0.495882 18.3401 1.4664 20.2699C1.42789 20.7516 1.40589 21.2432 1.40589 21.7357C1.40589 22.2762 1.42935 22.8173 1.47456 23.3327C1.4782 23.3875 1.48464 23.4407 1.48904 23.4955C1.36083 23.5444 1.25276 23.6375 1.1959 23.7652C0.402256 25.5426 0 27.4296 0 29.375C0 37.1474 6.50075 43.4714 14.4904 43.4714C16.5674 43.4714 18.5633 43.0539 20.4223 42.2318C20.4609 42.2146 20.4946 42.1909 20.5271 42.166C21.1529 42.2245 21.814 42.2563 22.5 42.2563C23.1882 42.2563 23.8512 42.2245 24.4738 42.1666C24.506 42.1912 24.5394 42.2148 24.5777 42.2318C26.4367 43.0539 28.4326 43.4714 30.5096 43.4714C38.4992 43.4714 45 37.1474 45 29.375C45 27.4296 44.5977 25.5426 43.8041 23.7652C43.7472 23.6375 43.6391 23.5443 43.5108 23.4954C43.5148 23.4449 43.5211 23.3929 43.5243 23.3433C43.5706 22.8173 43.5941 22.2762 43.5941 21.7357C43.5941 21.1952 43.5706 20.6542 43.5254 20.1387C43.5218 20.084 43.5154 20.0311 43.511 19.9765C43.6392 19.9276 43.7472 19.8344 43.8041 19.7067ZM25.3238 2.43812C25.3688 2.44435 25.4142 2.44922 25.4591 2.45572C25.5942 2.47535 25.7285 2.49768 25.8627 2.51995C26.0055 2.54364 26.1481 2.56764 26.2899 2.59429C26.4244 2.61962 26.5581 2.64721 26.6917 2.67521C26.831 2.7044 26.9702 2.73422 27.1085 2.76626C27.2425 2.79729 27.3758 2.83027 27.5087 2.86395C27.6445 2.89836 27.78 2.93367 27.9146 2.97079C28.0477 3.00746 28.1801 3.04569 28.3121 3.08501C28.4446 3.12446 28.5766 3.16516 28.708 3.20726C28.84 3.24956 28.9714 3.29305 29.1022 3.33797C29.2306 3.38208 29.3584 3.42765 29.4857 3.47424C29.617 3.52232 29.7479 3.57127 29.878 3.62196C30.0023 3.67042 30.1258 3.72066 30.249 3.77148C30.3792 3.82523 30.5091 3.87958 30.638 3.93594C30.7583 3.98857 30.8776 4.04312 30.9966 4.09802C31.1255 4.15741 31.2541 4.217 31.3815 4.279C31.4979 4.33567 31.613 4.3945 31.7282 4.4533C31.8553 4.51822 31.9824 4.58307 32.108 4.65052C32.22 4.71075 32.3306 4.77337 32.4413 4.83557C32.5673 4.9064 32.6935 4.97685 32.8178 5.05026C32.9246 5.1133 33.0296 5.17891 33.1351 5.24383C33.2599 5.32065 33.3851 5.39691 33.5081 5.4763C33.6103 5.54226 33.7104 5.61097 33.8113 5.67871C33.9345 5.7614 34.0582 5.84334 34.1794 5.92861C34.2759 5.99652 34.3701 6.06724 34.4654 6.13675C34.5876 6.22599 34.7106 6.31425 34.8306 6.4061C34.919 6.4737 35.0049 6.54422 35.0921 6.6132C35.2159 6.71121 35.3407 6.80817 35.4621 6.90892C35.536 6.97029 35.6074 7.03441 35.6804 7.09679C35.8113 7.2086 35.943 7.31955 36.0709 7.43456C36.0962 7.45738 36.1203 7.48142 36.1456 7.50439C36.4848 7.81262 36.8131 8.13196 37.1299 8.46195C37.1532 8.48623 37.1777 8.50947 37.2009 8.53389C37.3177 8.65684 37.4304 8.78351 37.5441 8.90935C37.6097 8.98199 37.6771 9.05306 37.7417 9.12668C37.8453 9.24483 37.945 9.36624 38.0458 9.48676C38.1163 9.57119 38.1885 9.65431 38.2577 9.73989C38.3524 9.8571 38.4434 9.97716 38.5355 10.0965C38.6069 10.189 38.6795 10.2805 38.7492 10.3743C38.8363 10.4916 38.9201 10.6113 39.0046 10.7305C39.0748 10.8294 39.146 10.9276 39.2143 11.0277C39.2952 11.1463 39.3729 11.267 39.4512 11.3874C39.5186 11.4911 39.5868 11.5943 39.6522 11.6993C39.7274 11.8199 39.7997 11.9423 39.8723 12.0645C39.9363 12.1723 40.0007 12.2799 40.0626 12.389C40.1321 12.5113 40.1989 12.6352 40.2657 12.759C40.326 12.8709 40.3864 12.9827 40.4446 13.0958C40.5082 13.2197 40.5695 13.3448 40.6305 13.4701C40.687 13.5861 40.7432 13.7023 40.7974 13.8195C40.8553 13.9447 40.911 14.071 40.9662 14.1975C41.0185 14.3173 41.0701 14.4374 41.12 14.5584C41.1722 14.6852 41.2226 14.8129 41.2722 14.941C41.3199 15.0643 41.3665 15.1881 41.4117 15.3126C41.458 15.4403 41.5029 15.5686 41.5465 15.6975C41.5897 15.825 41.6314 15.9531 41.6718 16.0817C41.7123 16.2102 41.7517 16.3392 41.7895 16.4689C41.8276 16.5998 41.8638 16.7314 41.8991 16.8633C41.9338 16.9928 41.9677 17.1226 41.9997 17.2531C42.0326 17.3875 42.0632 17.5227 42.0931 17.6581C42.1219 17.7883 42.1504 17.9186 42.1764 18.0497C42.2038 18.1873 42.2284 18.3257 42.2527 18.4643C42.2757 18.5952 42.2987 18.7261 42.3189 18.8579C42.3256 18.9015 42.3306 18.9455 42.337 18.9892H32.5414C31.5641 15.611 28.7939 12.9163 25.3238 11.9675V2.43812ZM32.9034 20.957C32.8983 20.8905 32.892 20.8246 32.8856 20.7585C32.8638 20.5353 32.8354 20.3145 32.7988 20.0969C32.7943 20.0702 32.7929 20.0423 32.7881 20.0157H42.4589C42.464 20.0814 42.4692 20.1476 42.4737 20.215C42.5172 20.7126 42.539 21.2241 42.539 21.7357C42.539 22.2473 42.5172 22.7588 42.4726 23.267C42.4686 23.3305 42.464 23.3934 42.4589 23.4563H32.7881C32.7935 23.4257 32.7952 23.3937 32.8004 23.3629C32.836 23.1497 32.8639 22.9336 32.8853 22.7153C32.8919 22.6481 32.8982 22.5812 32.9035 22.5136C32.9233 22.2566 32.9369 21.9978 32.9369 21.7357C32.9369 21.4732 32.9233 21.2142 32.9034 20.957ZM20.7313 2.31507C21.85 2.2171 23.1306 2.21654 24.2687 2.31507V11.7273C24.2224 11.7195 24.174 11.7169 24.1274 11.7098C23.9359 11.6806 23.7429 11.6565 23.5479 11.6379C23.4509 11.6285 23.3539 11.6201 23.256 11.6133C23.0555 11.5996 22.8545 11.5916 22.6528 11.5888C22.6015 11.5881 22.5515 11.5826 22.5 11.5826C22.4499 11.5826 22.4012 11.588 22.3513 11.5886C22.147 11.5913 21.9434 11.5996 21.7404 11.6135C21.6451 11.6201 21.5508 11.6283 21.4563 11.6373C21.2551 11.6565 21.0561 11.6812 20.8589 11.7115C20.8168 11.718 20.7731 11.7203 20.7313 11.7273V2.31507ZM19.0518 2.53355C19.2227 2.50443 19.394 2.47646 19.5664 2.45165C19.6029 2.44644 19.6397 2.4424 19.6762 2.43736V11.9674C16.2034 12.9181 13.4337 15.6138 12.4587 18.9892H2.66301C2.66938 18.9455 2.67442 18.9015 2.68111 18.8579C2.70131 18.7261 2.72427 18.5952 2.74727 18.4643C2.77159 18.3257 2.79619 18.1873 2.82355 18.0497C2.84962 17.9186 2.87805 17.7883 2.90688 17.6581C2.93685 17.5227 2.96746 17.3875 3.00032 17.2531C3.0323 17.1224 3.06623 16.9925 3.10096 16.8628C3.13611 16.7314 3.17223 16.6003 3.21021 16.47C3.24827 16.3393 3.28796 16.2092 3.32877 16.0796C3.36878 15.9526 3.40995 15.8261 3.45258 15.7001C3.49681 15.5694 3.54238 15.4391 3.5894 15.3096C3.63375 15.1874 3.67956 15.066 3.7263 14.9449C3.77683 14.8142 3.8283 14.6839 3.88165 14.5544C3.92997 14.4372 3.97993 14.3209 4.0305 14.2048C4.08761 14.0737 4.1454 13.9429 4.20537 13.8133C4.2568 13.7021 4.31016 13.5919 4.36366 13.4818C4.42778 13.35 4.49219 13.2184 4.55924 13.0882C4.61317 12.9833 4.66928 12.8796 4.72511 12.7758C4.79646 12.6433 4.86795 12.5107 4.94233 12.3799C4.99783 12.2823 5.05555 12.186 5.1127 12.0894C5.1922 11.9551 5.2717 11.8206 5.35442 11.6883C5.40978 11.5996 5.4675 11.5124 5.52429 11.4247C5.6132 11.2873 5.70192 11.1499 5.79423 11.0148C5.84701 10.9375 5.90216 10.8617 5.95609 10.7852C6.05658 10.6425 6.15697 10.4997 6.26121 10.3598C6.30724 10.298 6.35538 10.2378 6.40212 10.1766C6.5181 10.0246 6.63422 9.87279 6.75456 9.7242C6.78424 9.68753 6.81542 9.65211 6.84539 9.61565C8.13985 8.04043 9.67735 6.66038 11.4015 5.53423C11.4134 5.52647 11.4249 5.51836 11.4369 5.5106C11.6391 5.37913 11.8444 5.2519 12.0516 5.1275C12.0744 5.11382 12.0967 5.09956 12.1195 5.08599C12.3195 4.96697 12.5222 4.85213 12.7266 4.73983C12.7581 4.72257 12.789 4.70473 12.8206 4.68761C13.0201 4.57938 13.2221 4.47515 13.4256 4.37342C13.4633 4.3546 13.5006 4.33526 13.5384 4.31664C13.7379 4.21847 13.9397 4.12422 14.1429 4.03244C14.1866 4.01272 14.23 3.99264 14.2739 3.9732C14.4729 3.885 14.6739 3.8005 14.8763 3.71853C14.9264 3.69825 14.9764 3.67776 15.0267 3.65786C15.2247 3.57948 15.4244 3.50464 15.6255 3.43239C15.6823 3.412 15.7391 3.39158 15.7962 3.37168C15.9922 3.30317 16.1898 3.23787 16.3886 3.17529C16.4532 3.15497 16.518 3.13493 16.5829 3.1152C16.7761 3.05651 16.9705 3.00061 17.1661 2.94759C17.2393 2.92776 17.3128 2.90859 17.3863 2.88956C17.5749 2.84068 17.7645 2.79423 17.9552 2.75071C18.0393 2.73157 18.1238 2.71348 18.2082 2.69539C18.39 2.65639 18.5724 2.61917 18.7559 2.58507C18.8542 2.56688 18.953 2.55032 19.0518 2.53355ZM12.0966 22.5142C12.1017 22.5811 12.108 22.6473 12.1145 22.7138C12.1362 22.936 12.1645 23.1558 12.2009 23.3725C12.2055 23.4001 12.207 23.4288 12.2119 23.4563H2.54113C2.53598 23.3906 2.53084 23.3238 2.52626 23.2564C2.48277 22.7588 2.46103 22.2473 2.46103 21.7357C2.46103 21.2241 2.48277 20.7126 2.5274 20.2044C2.53159 20.1402 2.53888 20.0795 2.54414 20.0157H12.2119C12.2066 20.0455 12.205 20.0766 12.2 20.1065C12.1641 20.3206 12.1361 20.5375 12.1147 20.7567C12.1081 20.8238 12.1018 20.8907 12.0965 20.9581C12.0767 21.215 12.0631 21.4737 12.0631 21.7357C12.0631 21.9981 12.0767 22.2571 12.0966 22.5142ZM1.05513 14.0964C1.05513 6.88954 7.0821 1.02645 14.4904 1.02645C15.8436 1.02645 17.1637 1.21849 18.4334 1.59867C18.4229 1.60069 18.4129 1.60382 18.4024 1.60584C17.9296 1.69737 17.4637 1.80793 17.0024 1.93022C16.9284 1.94984 16.8541 1.96828 16.7804 1.98867C16.336 2.11165 15.8979 2.24966 15.4655 2.40016C15.3847 2.42831 15.3043 2.45698 15.2239 2.48603C14.7933 2.64182 14.3685 2.8095 13.9512 2.99163C13.8844 3.02078 13.8187 3.05175 13.7523 3.08156C13.3214 3.27489 12.8963 3.47873 12.4813 3.69909C12.4556 3.71272 12.4308 3.72758 12.4052 3.74132C11.9929 3.96238 11.5896 4.19749 11.1943 4.44408C11.154 4.4692 11.1128 4.49289 11.0727 4.51829C10.6818 4.76568 10.3017 5.02758 9.92901 5.29887C9.86878 5.34274 9.8082 5.38588 9.74844 5.43034C9.38581 5.70017 9.03284 5.98135 8.68895 6.27285C8.63119 6.32184 8.57411 6.37134 8.51693 6.42088C8.17136 6.72018 7.83465 7.02877 7.50975 7.34908C7.47048 7.3878 7.43258 7.42774 7.39363 7.46678C6.71018 8.15117 6.07471 8.88054 5.493 9.65065C5.46757 9.68429 5.44115 9.71707 5.4159 9.75088C5.13759 10.1239 4.87392 10.5075 4.62133 10.8985C4.58678 10.952 4.55191 11.0052 4.51787 11.059C4.27218 11.4472 4.03962 11.8436 3.82039 12.2479C3.79085 12.3023 3.76224 12.3572 3.7332 12.412C3.51337 12.8264 3.30577 13.2475 3.11491 13.6772C3.09985 13.711 3.08623 13.7455 3.07138 13.7794C2.67996 14.6738 2.35327 15.5997 2.09546 16.5516C2.08216 16.6007 2.06757 16.6492 2.05462 16.6984C1.93646 17.1485 1.83594 17.6047 1.74946 18.0656C1.74209 18.1049 1.73062 18.1428 1.72346 18.1821C1.27886 16.874 1.05513 15.5063 1.05513 14.0964ZM14.4904 42.445C7.0821 42.445 1.05513 36.5819 1.05513 29.375C1.05513 27.9751 1.27944 26.6074 1.72403 25.2949C1.73172 25.3371 1.74403 25.3778 1.75197 25.42C1.8374 25.8737 1.93636 26.3229 2.05251 26.766C2.06825 26.826 2.08599 26.8851 2.10226 26.9448C2.22825 27.4076 2.36686 27.8658 2.52515 28.3157C2.52794 28.3235 2.53112 28.3312 2.53391 28.3391C2.69313 28.7898 2.8709 29.2322 3.06119 29.6686C3.08158 29.7153 3.10035 29.7627 3.12106 29.8092C3.30781 30.2286 3.51076 30.6397 3.72509 31.0446C3.75931 31.1092 3.79303 31.1739 3.82794 31.2382C4.04305 31.6341 4.271 32.0224 4.51147 32.4029C4.55066 32.4648 4.59068 32.526 4.63052 32.5876C4.87892 32.9714 5.13792 33.3481 5.41111 33.7147C5.44143 33.7554 5.47322 33.7948 5.50387 33.8353C5.7928 34.2171 6.09227 34.591 6.40695 34.9524C6.40823 34.9539 6.40941 34.9555 6.41074 34.957C6.72384 35.3164 7.0521 35.6627 7.38934 36.0006C7.43047 36.0417 7.47045 36.0839 7.51193 36.1248C7.83587 36.4441 8.17161 36.7517 8.51611 37.0501C8.57368 37.0999 8.63108 37.1498 8.6892 37.199C9.03334 37.4908 9.3866 37.7721 9.74952 38.042C9.80827 38.0858 9.86785 38.1282 9.92708 38.1713C10.3009 38.4435 10.6822 38.7061 11.0742 38.9542C11.1125 38.9784 11.1517 39.001 11.1901 39.0249C11.5882 39.2734 11.9945 39.5102 12.4099 39.7328C12.4332 39.7453 12.4559 39.7589 12.4793 39.7713C12.8958 39.9925 13.3224 40.1971 13.7549 40.3911C13.8198 40.4202 13.8839 40.4504 13.9491 40.4789C14.3674 40.6616 14.7932 40.8297 15.225 40.9858C15.3046 41.0146 15.3842 41.043 15.4642 41.0708C15.8967 41.2214 16.3349 41.3595 16.7795 41.4825C16.8537 41.5031 16.9285 41.5217 17.003 41.5414C17.4634 41.6634 17.9283 41.7738 18.4001 41.8652C18.4112 41.8673 18.4218 41.8706 18.4328 41.8727C17.1688 42.2529 15.8488 42.445 14.4904 42.445ZM19.6762 41.0333C19.6312 41.0271 19.5858 41.0222 19.5409 41.0157C19.4058 40.9961 19.2715 40.9737 19.1373 40.9515C18.9945 40.9278 18.8519 40.9038 18.7101 40.8771C18.5756 40.8518 18.4419 40.8242 18.3083 40.7962C18.169 40.767 18.0298 40.7372 17.8915 40.7051C17.7575 40.6741 17.6242 40.6411 17.4913 40.6075C17.3555 40.573 17.22 40.5377 17.0854 40.5006C16.9523 40.4639 16.8199 40.4257 16.6879 40.3864C16.5554 40.3469 16.4234 40.3062 16.292 40.2641C16.16 40.2218 16.0286 40.1784 15.8978 40.1334C15.7694 40.0893 15.6416 40.0438 15.5143 39.9972C15.383 39.9491 15.2521 39.9001 15.122 39.8494C14.9977 39.801 14.8742 39.7508 14.751 39.6999C14.6208 39.6462 14.4909 39.5918 14.362 39.5355C14.2417 39.4828 14.1224 39.4282 14.0034 39.3734C13.8745 39.314 13.7459 39.2544 13.6185 39.1924C13.5021 39.1357 13.387 39.0769 13.2718 39.0181C13.1447 38.9532 13.0176 38.8884 12.892 38.8209C12.7797 38.7605 12.6689 38.6978 12.5579 38.6354C12.4324 38.5649 12.3068 38.4947 12.183 38.4216C12.075 38.3579 11.9689 38.2916 11.8623 38.226C11.7386 38.1499 11.6145 38.0743 11.4926 37.9956C11.3898 37.9292 11.2889 37.86 11.1873 37.7918C11.0646 37.7094 10.9413 37.6278 10.8205 37.5428C10.7247 37.4754 10.6312 37.4051 10.5366 37.3361C10.4136 37.2463 10.2897 37.1574 10.1688 37.0649C10.0809 36.9976 9.99538 36.9274 9.90859 36.8588C9.78471 36.7608 9.65989 36.6638 9.53848 36.563C9.46267 36.5001 9.38942 36.4343 9.31457 36.3703C9.1854 36.2599 9.05537 36.1504 8.92913 36.0369C8.90402 36.0143 8.88013 35.9905 8.85517 35.9678C8.51568 35.6593 8.1872 35.3398 7.87013 35.0095C7.84678 34.9852 7.82228 34.962 7.79911 34.9376C7.68238 34.8148 7.56987 34.6883 7.45636 34.5626C7.39055 34.4898 7.32296 34.4186 7.25827 34.3448C7.15467 34.2267 7.05496 34.1053 6.95422 33.9848C6.88366 33.9003 6.81149 33.8172 6.74233 33.7316C6.64723 33.614 6.55586 33.4935 6.46352 33.3738C6.3926 33.2818 6.3204 33.1908 6.25109 33.0976C6.16372 32.9802 6.07986 32.8602 5.99511 32.7408C5.92501 32.642 5.85392 32.5438 5.78565 32.4438C5.70475 32.3252 5.62707 32.2045 5.54883 32.0842C5.48138 31.9805 5.41325 31.8772 5.34773 31.7722C5.2726 31.6518 5.20043 31.5296 5.12794 31.4075C5.06382 31.2995 4.99934 31.1917 4.93729 31.0825C4.86791 30.9603 4.80128 30.8366 4.73455 30.713C4.67411 30.6009 4.61364 30.4889 4.55538 30.3757C4.49169 30.2518 4.43039 30.1266 4.36935 30.0013C4.31295 29.8855 4.25684 29.7695 4.20273 29.6524C4.14479 29.5271 4.08893 29.4007 4.03368 29.274C3.98143 29.1542 3.92983 29.0341 3.87997 28.9131C3.82787 28.7866 3.77755 28.6592 3.72813 28.5314C3.68024 28.4076 3.63339 28.2833 3.58804 28.1584C3.54187 28.0311 3.49717 27.9033 3.45368 27.7749C3.41041 27.6471 3.36857 27.5186 3.32802 27.3897C3.2876 27.2614 3.2483 27.1325 3.21061 27.0031C3.17245 26.8721 3.13615 26.7404 3.10078 26.6083C3.06616 26.4789 3.03226 26.3492 3.00036 26.2189C2.96742 26.0844 2.93677 25.949 2.90677 25.8134C2.87802 25.6834 2.84962 25.5534 2.82359 25.4225C2.79619 25.2846 2.77152 25.1459 2.74716 25.007C2.72427 24.8764 2.70131 24.7458 2.68114 24.6143C2.67446 24.5707 2.66945 24.5265 2.66305 24.4827H12.4586C13.4359 27.8609 16.2061 30.5552 19.6762 31.5039V41.0333ZM24.2687 41.1563C23.1523 41.2543 21.878 41.2554 20.7313 41.1569V31.7441C20.7617 31.7492 20.7938 31.7507 20.8243 31.7555C21.0504 31.7914 21.2796 31.8191 21.5112 31.8402C21.5695 31.8454 21.627 31.8507 21.6855 31.855C21.9546 31.8751 22.2255 31.8888 22.5 31.8888C22.7749 31.8888 23.0463 31.875 23.3156 31.855C23.3731 31.8507 23.4296 31.8455 23.4868 31.8404C23.723 31.819 23.9564 31.7909 24.1865 31.7542C24.2135 31.7499 24.2418 31.7486 24.2687 31.7441V41.1563ZM21.395 30.8C21.0304 30.7587 20.6718 30.6968 20.3256 30.6141C16.9113 29.827 14.1825 27.1724 13.3723 23.8476C13.2035 23.1774 13.1182 22.4671 13.1182 21.7357C13.1182 21.0043 13.2035 20.294 13.3734 19.621C14.1825 16.2996 16.9113 13.6444 20.3291 12.8562C21.595 12.5544 23.03 12.5434 24.3245 12.7961C24.4402 12.8188 24.5606 12.8301 24.6744 12.8573C28.0887 13.6444 30.8175 16.2996 31.6277 19.6249C31.7965 20.294 31.8818 21.0043 31.8818 21.7357C31.8818 22.4671 31.7965 23.1774 31.6266 23.8509C30.8175 27.1724 28.0887 29.827 24.6709 30.6152C23.6375 30.8615 22.487 30.9231 21.395 30.8ZM25.8627 40.9515C25.7285 40.9737 25.5942 40.9961 25.4591 41.0157C25.4142 41.0222 25.3688 41.0271 25.3238 41.0333V31.504C28.7964 30.5534 31.566 27.8584 32.5412 24.4827H42.337C42.3306 24.5265 42.3255 24.5707 42.3189 24.6143C42.2987 24.7458 42.2757 24.8764 42.2528 25.007C42.2285 25.1459 42.2038 25.2846 42.1764 25.4225C42.1504 25.5534 42.122 25.6834 42.0932 25.8134C42.0632 25.949 42.0326 26.0844 41.9996 26.2189C41.9677 26.3492 41.9338 26.4789 41.8992 26.6083C41.8638 26.7404 41.8276 26.8721 41.7894 27.0031C41.7517 27.1325 41.7124 27.2614 41.672 27.3897C41.6314 27.5186 41.5896 27.6471 41.5463 27.7749C41.5028 27.9033 41.4581 28.0311 41.412 28.1584C41.3666 28.2833 41.3198 28.4076 41.2719 28.5314C41.2225 28.6592 41.1721 28.7866 41.12 28.9131C41.0702 29.0341 41.0186 29.1542 40.9663 29.274C40.9111 29.4007 40.8552 29.5271 40.7973 29.6524C40.7432 29.7695 40.687 29.8855 40.6307 30.0013C40.5696 30.1266 40.5083 30.2518 40.4446 30.3757C40.3864 30.4889 40.3259 30.6009 40.2654 30.713C40.1987 30.8366 40.1321 30.9603 40.0627 31.0825C40.0007 31.1917 39.9362 31.2995 39.8721 31.4075C39.7996 31.5296 39.7274 31.6518 39.6523 31.7722C39.5868 31.8772 39.5186 31.9805 39.4512 32.0842C39.3729 32.2045 39.2952 32.3252 39.2144 32.4438C39.1461 32.5438 39.075 32.642 39.0049 32.7408C38.9201 32.8602 38.8363 32.9802 38.7489 33.0976C38.6796 33.1908 38.6074 33.2818 38.5365 33.3738C38.4441 33.4935 38.3528 33.614 38.2577 33.7316C38.1885 33.8172 38.1163 33.9003 38.0458 33.9848C37.945 34.1053 37.8453 34.2267 37.7417 34.3448C37.677 34.4186 37.6094 34.4898 37.5436 34.5626C37.4301 34.6883 37.3176 34.8148 37.2009 34.9376C37.1777 34.962 37.1532 34.9852 37.1299 35.0095C36.8128 35.3398 36.4843 35.6593 36.1448 35.9678C36.1199 35.9905 36.096 36.0143 36.0709 36.0369C35.9446 36.1504 35.8146 36.2599 35.6854 36.3703C35.6106 36.4343 35.5373 36.5001 35.4615 36.563C35.3401 36.6638 35.2153 36.7608 35.0914 36.8588C35.0046 36.9274 34.9191 36.9976 34.8312 37.0649C34.7103 37.1574 34.5864 37.2463 34.4634 37.3361C34.3688 37.4051 34.2753 37.4754 34.1795 37.5428C34.0587 37.6278 33.9354 37.7094 33.8127 37.7918C33.7111 37.86 33.6102 37.9292 33.5074 37.9956C33.3855 38.0743 33.2614 38.1499 33.1377 38.226C33.0311 38.2916 32.925 38.3579 32.817 38.4216C32.6932 38.4947 32.5676 38.5649 32.4421 38.6354C32.3311 38.6978 32.2203 38.7605 32.108 38.8209C31.9824 38.8884 31.8553 38.9532 31.7282 39.0181C31.613 39.0769 31.4979 39.1357 31.3815 39.1924C31.2541 39.2544 31.1255 39.314 30.9966 39.3734C30.8776 39.4282 30.7583 39.4828 30.638 39.5355C30.5091 39.5918 30.3792 39.6462 30.249 39.6999C30.1258 39.7508 30.0023 39.801 29.878 39.8494C29.7479 39.9001 29.617 39.9491 29.4857 39.9972C29.3584 40.0438 29.2306 40.0893 29.1022 40.1334C28.9714 40.1784 28.84 40.2218 28.708 40.2641C28.5766 40.3062 28.4446 40.3469 28.3121 40.3864C28.1801 40.4257 28.0477 40.4639 27.9146 40.5006C27.78 40.5377 27.6445 40.573 27.5087 40.6075C27.3758 40.6411 27.2425 40.6741 27.1085 40.7051C26.9702 40.7372 26.831 40.767 26.6917 40.7962C26.5581 40.8242 26.4244 40.8518 26.2899 40.8771C26.1481 40.9038 26.0055 40.9278 25.8627 40.9515ZM43.9449 29.375C43.9449 36.5819 37.9179 42.445 30.5096 42.445C29.1512 42.445 27.8312 42.2529 26.5672 41.8727C26.5782 41.8706 26.5888 41.8673 26.5999 41.8652C27.0717 41.7738 27.5366 41.6634 27.997 41.5414C28.0715 41.5217 28.1463 41.5031 28.2205 41.4825C28.6651 41.3595 29.1033 41.2214 29.5358 41.0708C29.6158 41.043 29.6954 41.0146 29.775 40.9858C30.2068 40.8297 30.6326 40.6616 31.0509 40.4789C31.1161 40.4504 31.1803 40.4202 31.2452 40.3911C31.6775 40.1971 32.104 39.9926 32.5205 39.7715C32.5442 39.7588 32.5672 39.745 32.5909 39.7323C33.006 39.5099 33.412 39.2733 33.8099 39.0249C33.8483 39.001 33.8875 38.9784 33.9258 38.9542C34.3178 38.7061 34.6991 38.4435 35.0729 38.1713C35.1321 38.1282 35.1917 38.0858 35.2505 38.042C35.6134 37.7721 35.9667 37.4908 36.3108 37.199C36.3689 37.1498 36.4263 37.0999 36.4839 37.0501C36.8284 36.7517 37.1641 36.4441 37.4881 36.1248C37.5296 36.0839 37.5695 36.0417 37.6107 36.0006C37.9479 35.6627 38.2762 35.3164 38.5893 34.957C38.5906 34.9555 38.5918 34.9539 38.5931 34.9524C38.9077 34.591 39.2072 34.2171 39.4961 33.8353C39.5268 33.7948 39.5586 33.7554 39.5889 33.7147C39.8621 33.3481 40.1211 32.9714 40.3695 32.5876C40.4093 32.526 40.4494 32.4648 40.4886 32.4028C40.7289 32.0226 40.9567 31.6345 41.1717 31.2388C41.2069 31.1741 41.2408 31.1089 41.2753 31.0438C41.4895 30.6392 41.6923 30.2284 41.8789 29.8092C41.8996 29.7627 41.9184 29.7153 41.9388 29.6686C42.1291 29.2322 42.3069 28.7898 42.4661 28.3391C42.4689 28.3312 42.4721 28.3235 42.4748 28.3157C42.6331 27.8658 42.7718 27.4076 42.8977 26.9448C42.914 26.8851 42.9318 26.826 42.9475 26.766C43.0636 26.3229 43.1626 25.8737 43.248 25.42C43.256 25.3778 43.2683 25.3371 43.276 25.2949C43.7206 26.6074 43.9449 27.9751 43.9449 29.375ZM43.276 18.1771C43.2683 18.1348 43.2559 18.0941 43.248 18.0519C43.1626 17.5984 43.0637 17.1493 42.9476 16.7062C42.9317 16.6459 42.9139 16.5864 42.8975 16.5262C42.7716 16.064 42.6332 15.6063 42.4751 15.1569C42.472 15.1479 42.4683 15.1392 42.4651 15.1302C42.3064 14.6813 42.1293 14.2405 41.9398 13.8057C41.9189 13.7578 41.8996 13.7091 41.8783 13.6613C41.6924 13.2436 41.4902 12.8342 41.2769 12.431C41.2414 12.364 41.2065 12.2969 41.1703 12.2304C40.9563 11.8365 40.7295 11.4503 40.4903 11.0718C40.4498 11.0076 40.4083 10.9443 40.3671 10.8805C40.1199 10.4987 39.8623 10.1239 39.5906 9.7593C39.5584 9.71613 39.5247 9.67431 39.4922 9.63138C39.2065 9.25408 38.9105 8.88451 38.5996 8.52718C38.5953 8.52224 38.5914 8.51705 38.5871 8.51215C38.2759 8.15503 37.9496 7.81092 37.6146 7.47509C37.5714 7.43178 37.5294 7.38749 37.4858 7.34456C37.1636 7.02714 36.8298 6.7213 36.4873 6.4245C36.4276 6.37274 36.368 6.321 36.3076 6.26986C35.9653 5.97978 35.6139 5.69997 35.253 5.43135C35.1922 5.38616 35.1306 5.34229 35.0694 5.29772C34.6975 5.02699 34.3181 4.76568 33.9281 4.51874C33.8874 4.49296 33.8455 4.46895 33.8046 4.44342C33.4097 4.19714 33.0069 3.96234 32.5951 3.74149C32.5694 3.72775 32.5446 3.71286 32.519 3.69922C32.1037 3.47873 31.6784 3.27479 31.2472 3.08132C31.1812 3.05168 31.116 3.02096 31.0496 2.99198C30.6321 2.80975 30.2072 2.64196 29.7764 2.48613C29.696 2.45705 29.6156 2.42838 29.5347 2.40023C29.1027 2.24984 28.6652 2.112 28.2212 1.98909C28.1465 1.96839 28.071 1.94967 27.9959 1.92977C27.5359 1.80786 27.0713 1.69758 26.5999 1.60626C26.5888 1.60413 26.5782 1.60079 26.5672 1.59867C27.8312 1.21849 29.1512 1.02645 30.5096 1.02645C37.9179 1.02645 43.9449 6.88954 43.9449 14.0964C43.9449 15.4963 43.7206 16.864 43.276 18.1771Z" fill="#0558A5"/>
</svg>
