<svg width="41" height="41" viewBox="0 0 41 41" fill="none" xmlns="http://www.w3.org/2000/svg">
<path d="M40.8325 34.6826C40.681 34.4673 40.5295 34.3955 40.3022 34.3238L35.3025 33.9649C34.9237 33.9649 34.545 34.252 34.4692 34.6109C34.4692 35.0415 34.7722 35.3287 35.151 35.4004L38.1054 35.6158C33.4844 38.5587 28.0301 39.8508 22.5001 39.2765C9.54625 37.9845 0.228557 26.9305 1.66788 14.728C2.19815 9.99056 4.31925 5.54025 7.72817 2.09484C8.03118 1.80772 8.03118 1.37704 7.65241 1.08993C7.3494 0.80281 6.89488 0.80281 6.59186 1.16171C2.95569 4.82245 0.758833 9.48811 0.152803 14.5844C-1.36227 27.5765 8.56146 39.2765 22.2729 40.7121C28.1816 41.2863 33.8632 39.9943 38.7114 36.9796L37.8781 39.2765C37.7266 39.6354 37.9539 40.0661 38.3326 40.2097C38.7114 40.3532 39.1659 40.1379 39.3174 39.779L40.9083 35.3287C40.984 35.1133 40.9083 34.898 40.8325 34.6826Z" fill="#0558A5"/>
</svg>
