<svg width="45" height="40" viewBox="0 0 45 40" fill="none" xmlns="http://www.w3.org/2000/svg">
<path d="M43.9238 28.5524L29.373 4.67163C27.9386 2.31718 25.3693 0.911621 22.5 0.911621C19.6307 0.911621 17.0614 2.31718 15.627 4.67163L1.07617 28.5524C-0.358722 30.9069 -0.358722 33.718 1.07617 36.0724C2.51055 38.4269 5.07985 39.8325 7.94913 39.8325H37.0509C39.9201 39.8325 42.4894 38.4269 43.9238 36.0724C45.3587 33.718 45.3587 30.9069 43.9238 28.5524ZM42.6674 35.3846C41.495 37.3084 39.3957 38.4567 37.0514 38.4567H7.94913C5.60481 38.4567 3.50498 37.3079 2.33307 35.3846C1.16116 33.4608 1.16116 31.1636 2.33307 29.2398L16.8839 5.35901C18.0563 3.43519 20.1557 2.28686 22.5 2.28686C24.8443 2.28686 26.9442 3.43566 28.1161 5.35901L42.6669 29.2398C43.8393 31.1636 43.8393 33.4612 42.6674 35.3846Z" fill="#0558A5"/>
</svg>
